# xmcd
#
# Track frame offsets:
#	150
#	14914
#	31464
#	50847
#	66555
#	79488
#	96010
#	110974
#	128757
#	144298
#	162446
#	177917
#
# Disc length: 2612 seconds
# Revision: 0
# Processed by: cddbd v1.5.2PL0 Copyright (c) Steve Scherf et al.
# Submitted via: dBpowerAMP V12.0
#
DISCID=b60a320c
DTITLE=Kathy Coleman - Because of You
DYEAR=2013
DGENRE=Country
TTITLE0=Gun Shearer
TTITLE1=My Get Up and Go
TTITLE2=Little Tears
TTITLE3=Our First House
TTITLE4=A Bit of Fun
TTITLE5=Because of You
TTITLE6=It's a Shame
TTITLE7=Daisy
TTITLE8=They Call 'em Coopers
TTITLE9=2nd Hand Love
TTITLE10=My Imagination
TTITLE11=Looking Back
EXTD=
EXTT0=
EXTT1=
EXTT2=
EXTT3=
EXTT4=
EXTT5=
EXTT6=
EXTT7=
EXTT8=
EXTT9=
EXTT10=
EXTT11=
PLAYORDER=
